<svg width="527" height="588" viewBox="0 0 527 588" fill="none" xmlns="http://www.w3.org/2000/svg">
<path d="M230.169 8.84524C250.596 -2.94841 275.764 -2.94842 296.191 8.84524L493.349 122.675C513.777 134.469 526.36 156.264 526.36 179.851V407.51C526.36 431.098 513.777 452.893 493.349 464.687L296.191 578.517C275.764 590.31 250.596 590.31 230.169 578.517L33.011 464.687C12.5837 452.893 0 431.098 0 407.511V179.852C0 156.264 12.5837 134.469 33.0109 122.675L230.169 8.84524Z" fill="#EE370F"/>
<path fill-rule="evenodd" clip-rule="evenodd" d="M102.541 200.472C90.1124 193.296 73.3137 197.778 73.2966 212.13L73.1014 375.791C73.0812 392.748 82.0963 408.405 96.7504 416.866L238.192 498.528C252.847 506.989 270.914 506.967 285.589 498.471L427.226 416.472C439.646 409.281 435.129 392.492 422.7 385.316L388.422 365.526C380.775 361.111 371.001 364.496 363.351 368.906L276.729 418.839C267.754 424.012 256.693 424.005 247.711 418.819L161.021 368.768C152.039 363.583 146.502 354.007 146.495 343.648L146.426 243.664C146.42 234.835 144.465 224.677 136.818 220.262L102.541 200.472Z" fill="white"/>
</svg>
