<?xml version="1.0" standalone="no"?>
<!DOCTYPE svg PUBLIC "-//W3C//DTD SVG 20010904//EN"
 "http://www.w3.org/TR/2001/REC-SVG-20010904/DTD/svg10.dtd">
<svg version="1.0" xmlns="http://www.w3.org/2000/svg"
 width="588.000000pt" height="588.000000pt" viewBox="0 0 588.000000 588.000000"
 preserveAspectRatio="xMidYMid meet">
<metadata>
Created by potrace 1.14, written by Peter Selinger 2001-2017
</metadata>
<g transform="translate(0.000000,588.000000) scale(0.100000,-0.100000)"
fill="#000000" stroke="none">
<path d="M2848 5875 c-2 -2 -22 -7 -43 -11 -50 -8 -145 -42 -166 -60 -8 -8
-19 -14 -23 -14 -11 0 -171 -93 -174 -102 -2 -4 -12 -8 -23 -8 -10 0 -19 -4
-19 -9 0 -5 -8 -11 -17 -14 -10 -4 -40 -20 -68 -36 -27 -17 -86 -51 -130 -76
-44 -25 -87 -50 -95 -55 -8 -5 -55 -33 -105 -61 -49 -29 -92 -55 -95 -58 -3
-3 -10 -7 -16 -8 -10 -2 -57 -29 -271 -155 -45 -26 -87 -48 -93 -48 -5 0 -10
-4 -10 -10 0 -5 -5 -10 -10 -10 -6 0 -27 -11 -48 -23 -20 -13 -57 -35 -82 -49
-25 -14 -74 -42 -110 -63 -36 -21 -90 -51 -120 -68 -30 -16 -62 -35 -70 -42
-8 -7 -28 -19 -45 -27 -55 -28 -413 -237 -437 -255 -24 -19 -126 -121 -143
-144 -24 -31 -67 -112 -82 -152 -43 -117 -42 -101 -40 -1392 1 -676 6 -1243
10 -1258 43 -159 121 -285 234 -377 17 -15 148 -95 223 -138 19 -11 123 -70
230 -132 107 -62 211 -122 230 -133 19 -11 49 -28 65 -38 17 -11 44 -26 60
-34 17 -9 37 -20 45 -25 63 -40 170 -100 179 -100 6 0 11 -4 11 -9 0 -5 10
-13 23 -17 12 -3 33 -14 47 -24 14 -9 45 -28 70 -42 25 -14 101 -58 168 -97
68 -39 128 -71 133 -71 5 0 9 -4 9 -8 0 -4 25 -20 55 -36 30 -15 57 -32 60
-37 4 -5 15 -9 25 -9 10 0 20 -4 22 -8 4 -11 99 -68 126 -76 12 -4 22 -12 22
-17 0 -5 5 -9 11 -9 6 0 49 -23 97 -52 187 -111 275 -150 364 -161 15 -1 29
-5 32 -8 9 -8 150 -1 211 12 33 6 92 26 130 44 69 31 452 248 510 289 17 11
32 20 35 20 5 -1 9 1 98 54 29 18 58 32 63 32 5 0 9 4 9 8 0 4 12 13 28 19 15
7 54 28 87 48 33 20 68 39 78 42 9 3 17 8 17 12 0 3 15 12 33 20 17 8 34 17
37 20 8 9 41 29 85 50 22 11 57 31 78 45 21 14 40 26 42 26 2 0 49 27 105 60
56 33 104 60 107 60 3 0 17 8 31 18 15 11 52 33 82 49 30 17 110 63 177 102
68 39 127 71 133 71 5 0 10 4 10 9 0 5 8 12 18 15 9 3 26 12 37 19 12 6 62 36
112 66 209 123 322 285 350 506 9 65 9 2353 0 2425 -10 88 -13 106 -21 118 -4
7 -9 20 -11 31 -3 17 -18 50 -59 128 -9 17 -30 46 -45 62 -16 17 -27 31 -25
31 2 0 -17 20 -43 45 -40 37 -176 125 -288 186 -16 9 -46 26 -65 38 -19 11
-46 26 -60 33 -14 7 -60 34 -103 60 -43 27 -80 48 -82 48 -1 0 -80 45 -174
100 -93 55 -173 100 -176 100 -4 0 -26 14 -50 30 -24 17 -46 30 -48 30 -2 0
-56 30 -118 67 -63 36 -139 80 -169 96 -30 16 -71 40 -90 53 -19 13 -40 24
-46 24 -7 0 -14 4 -16 8 -3 9 -21 20 -98 59 -19 10 -37 20 -40 23 -7 7 -43 29
-60 37 -8 4 -86 49 -174 100 -87 51 -161 93 -163 93 -3 0 -17 9 -33 20 -15 11
-30 17 -34 13 -3 -3 -6 -2 -6 4 0 11 -46 32 -145 65 -55 19 -264 36 -277 23z"/>
</g>
</svg>
