<svg width="181" height="42" viewBox="0 0 181 42" fill="none" xmlns="http://www.w3.org/2000/svg">
<path d="M17.1294 0.627432C18.5784 -0.209144 20.3636 -0.209144 21.8126 0.627432L35.798 8.70186C37.247 9.53844 38.1396 11.0845 38.1396 12.7576V28.9065C38.1396 30.5797 37.247 32.1257 35.798 32.9623L21.8126 41.0367C20.3636 41.8733 18.5784 41.8733 17.1294 41.0367L3.1441 32.9623C1.69511 32.1257 0.80249 30.5797 0.80249 28.9065V12.7576C0.80249 11.0845 1.69511 9.53844 3.1441 8.70186L17.1294 0.627432Z" fill="#EE370F"/>
<path fill-rule="evenodd" clip-rule="evenodd" d="M8.07576 14.2204C7.19426 13.7115 6.00286 14.0294 6.00164 15.0473L5.9878 26.6565C5.98636 27.8593 6.62584 28.97 7.66535 29.5701L17.6985 35.3627C18.738 35.9629 20.0196 35.9614 21.0605 35.3587L31.1075 29.5421C31.9884 29.0321 31.668 27.8414 30.7865 27.3325L28.3547 25.9284C27.8123 25.6153 27.119 25.8554 26.5764 26.1682L20.4319 29.7101C19.7953 30.0771 19.0106 30.0766 18.3735 29.7087L12.2242 26.1584C11.5871 25.7906 11.1943 25.1113 11.1938 24.3765L11.189 17.2842C11.1885 16.6579 11.0498 15.9375 10.5074 15.6243L8.07576 14.2204Z" fill="white"/>
<path d="M53.6084 33.7319C52.0884 33.7319 50.9084 33.3319 50.0684 32.5319C49.2284 31.7319 48.8084 30.6119 48.8084 29.1719V14.2319C48.8084 13.6719 48.9884 13.2319 49.3484 12.9119C49.7084 12.5919 50.1884 12.4319 50.7884 12.4319C51.3884 12.4319 51.8684 12.6019 52.2284 12.9419C52.6084 13.2619 52.7984 13.6919 52.7984 14.2319V29.1719C52.7984 29.6319 52.9084 29.9919 53.1284 30.2519C53.3684 30.5119 53.6884 30.6419 54.0884 30.6419H63.6884C64.2884 30.6419 64.7484 30.7819 65.0684 31.0619C65.3884 31.3219 65.5484 31.7019 65.5484 32.2019C65.5484 32.6819 65.3784 33.0619 65.0384 33.3419C64.7184 33.6019 64.2684 33.7319 63.6884 33.7319H53.6084ZM70.7279 34.0019C70.1279 34.0019 69.6479 33.8419 69.2879 33.5219C68.9279 33.2019 68.7479 32.7619 68.7479 32.2019V21.7019C68.7479 18.8019 69.5779 16.5319 71.2379 14.8919C72.8979 13.2519 75.2079 12.4319 78.1679 12.4319C80.1079 12.4319 81.7879 12.8019 83.2079 13.5419C84.6279 14.2819 85.7079 15.3519 86.4479 16.7519C87.2079 18.1519 87.5879 19.8019 87.5879 21.7019V32.2019C87.5879 32.7619 87.4079 33.2019 87.0479 33.5219C86.6879 33.8419 86.2079 34.0019 85.6079 34.0019C85.0079 34.0019 84.5179 33.8419 84.1379 33.5219C83.7779 33.1819 83.5979 32.7419 83.5979 32.2019V27.3119H72.7379V32.2019C72.7379 32.7419 72.5479 33.1819 72.1679 33.5219C71.8079 33.8419 71.3279 34.0019 70.7279 34.0019ZM83.5979 24.2219V21.6119C83.5979 19.6119 83.1379 18.1119 82.2179 17.1119C81.3179 16.0919 79.9679 15.5819 78.1679 15.5819C74.5479 15.5819 72.7379 17.5919 72.7379 21.6119V24.2219H83.5979ZM96.5119 33.7319C94.9919 33.7319 93.8119 33.3319 92.9719 32.5319C92.1319 31.7319 91.7119 30.6119 91.7119 29.1719V17.1719C91.7119 15.7719 92.1119 14.6819 92.9119 13.9019C93.7319 13.1219 94.8619 12.7319 96.3019 12.7319H100.502C102.802 12.7319 104.792 13.1519 106.472 13.9919C108.152 14.8319 109.432 16.0419 110.312 17.6219C111.212 19.2019 111.662 21.0819 111.662 23.2619C111.662 25.4419 111.212 27.3219 110.312 28.9019C109.432 30.4619 108.152 31.6619 106.472 32.5019C104.812 33.3219 102.822 33.7319 100.502 33.7319H96.5119ZM100.202 30.6419C102.702 30.6419 104.562 30.0419 105.782 28.8419C107.002 27.6219 107.612 25.7619 107.612 23.2619C107.612 20.7619 106.992 18.9019 105.752 17.6819C104.532 16.4419 102.682 15.8219 100.202 15.8219H96.9919C96.5919 15.8219 96.2719 15.9519 96.0319 16.2119C95.8119 16.4719 95.7019 16.8319 95.7019 17.2919V29.1719C95.7019 29.6319 95.8119 29.9919 96.0319 30.2519C96.2719 30.5119 96.5919 30.6419 96.9919 30.6419H100.202ZM120.41 33.7319C118.89 33.7319 117.71 33.3319 116.87 32.5319C116.03 31.7319 115.61 30.6119 115.61 29.1719V17.1719C115.61 15.7719 116.01 14.6819 116.81 13.9019C117.63 13.1219 118.76 12.7319 120.2 12.7319H129.53C130.13 12.7319 130.59 12.8719 130.91 13.1519C131.23 13.4119 131.39 13.7919 131.39 14.2919C131.39 14.7719 131.22 15.1519 130.88 15.4319C130.56 15.6919 130.11 15.8219 129.53 15.8219H120.89C120.49 15.8219 120.17 15.9519 119.93 16.2119C119.71 16.4719 119.6 16.8319 119.6 17.2919V21.4619H127.25C127.85 21.4619 128.31 21.6019 128.63 21.8819C128.95 22.1419 129.11 22.5219 129.11 23.0219C129.11 23.5019 128.94 23.8819 128.6 24.1619C128.28 24.4219 127.83 24.5519 127.25 24.5519H119.6V29.1719C119.6 29.6319 119.71 29.9919 119.93 30.2519C120.17 30.5119 120.49 30.6419 120.89 30.6419H130.19C130.79 30.6419 131.25 30.7819 131.57 31.0619C131.89 31.3219 132.05 31.7019 132.05 32.2019C132.05 32.6819 131.88 33.0619 131.54 33.3419C131.22 33.6019 130.77 33.7319 130.19 33.7319H120.41ZM145.16 34.0319C143.76 34.0319 142.6 33.5519 141.68 32.5919C140.76 31.6119 139.95 30.0019 139.25 27.7619L135.08 14.5019C135 14.2619 134.96 14.0119 134.96 13.7519C134.96 12.8719 135.58 12.4319 136.82 12.4319C137.44 12.4319 137.91 12.5519 138.23 12.7919C138.57 13.0319 138.82 13.4219 138.98 13.9619L143.12 27.4619C143.5 28.6819 143.85 29.5619 144.17 30.1019C144.49 30.6419 144.82 30.9119 145.16 30.9119C145.5 30.9119 145.83 30.6419 146.15 30.1019C146.47 29.5619 146.82 28.6819 147.2 27.4619L151.34 13.9619C151.5 13.4219 151.74 13.0319 152.06 12.7919C152.4 12.5519 152.88 12.4319 153.5 12.4319C154.74 12.4319 155.36 12.8719 155.36 13.7519C155.36 14.0119 155.32 14.2619 155.24 14.5019L151.07 27.7619C150.37 30.0019 149.56 31.6119 148.64 32.5919C147.72 33.5519 146.56 34.0319 145.16 34.0319ZM159.816 34.0019C159.216 34.0019 158.736 33.8419 158.376 33.5219C158.016 33.2019 157.836 32.7619 157.836 32.2019V21.7019C157.836 18.8019 158.666 16.5319 160.326 14.8919C161.986 13.2519 164.296 12.4319 167.256 12.4319C169.196 12.4319 170.876 12.8019 172.296 13.5419C173.716 14.2819 174.796 15.3519 175.536 16.7519C176.296 18.1519 176.676 19.8019 176.676 21.7019V32.2019C176.676 32.7619 176.496 33.2019 176.136 33.5219C175.776 33.8419 175.296 34.0019 174.696 34.0019C174.096 34.0019 173.606 33.8419 173.226 33.5219C172.866 33.1819 172.686 32.7419 172.686 32.2019V27.3119H161.826V32.2019C161.826 32.7419 161.636 33.1819 161.256 33.5219C160.896 33.8419 160.416 34.0019 159.816 34.0019ZM172.686 24.2219V21.6119C172.686 19.6119 172.226 18.1119 171.306 17.1119C170.406 16.0919 169.056 15.5819 167.256 15.5819C163.636 15.5819 161.826 17.5919 161.826 21.6119V24.2219H172.686Z" fill="white"/>
</svg>
